<?xml version="1.0" standalone="no"?>
<!DOCTYPE svg PUBLIC "-//W3C//DTD SVG 20010904//EN"
        "http://www.w3.org/TR/2001/REC-SVG-20010904/DTD/svg10.dtd">
<svg version="1.0" xmlns="http://www.w3.org/2000/svg"
     width="4198.000000pt" height="2514.000000pt" viewBox="0 0 4198.000000 2514.000000"
     preserveAspectRatio="xMidYMid meet">

    <g transform="translate(0.000000,2514.000000) scale(0.100000,-0.100000)"
       fill="#000000" stroke="none">
        <path d="M10215 17445 c-22 -8 -41 -15 -42 -15 0 0 -17 -24 -36 -53 -20 -29
-43 -82 -52 -118 -40 -156 -99 -323 -272 -768 -102 -262 -201 -514 -218 -561
-18 -47 -54 -139 -80 -205 -26 -66 -64 -167 -85 -225 -37 -103 -109 -291 -470
-1225 -267 -693 -457 -1193 -548 -1450 -39 -109 -47 -142 -46 -201 0 -62 3
-76 27 -107 38 -50 81 -74 178 -97 255 -61 610 28 901 226 124 85 258 195 367
303 112 111 166 180 246 311 70 115 253 482 319 640 42 100 303 692 491 1115
l63 140 48 8 c27 4 265 9 529 10 l480 2 -3 -65 c-12 -223 -266 -896 -675
-1785 -273 -594 -496 -1049 -728 -1488 -329 -618 -1253 -1992 -1650 -2452
-615 -713 -993 -1056 -1467 -1329 -173 -101 -215 -219 -111 -318 52 -49 103
-63 224 -62 123 2 278 29 540 96 466 118 669 203 1172 491 547 314 904 590
1230 951 596 661 1216 1547 1735 2481 278 500 520 1018 703 1505 24 63 98 259
164 434 67 176 130 345 141 375 10 31 60 175 110 321 107 308 199 630 264 923
71 315 89 451 90 662 0 161 -3 192 -26 293 -31 131 -97 267 -163 336 -61 63
-148 101 -295 130 -303 60 -789 68 -1810 30 l-165 -6 -48 94 c-133 261 -308
449 -517 557 -41 21 -100 46 -130 55 -30 10 -68 25 -85 34 -42 23 -243 28
-300 7z m259 -134 c174 -42 305 -120 439 -260 111 -117 239 -319 285 -451 9
-25 16 -30 44 -30 18 0 269 7 558 16 767 24 1265 10 1490 -42 100 -22 164 -58
203 -112 89 -122 126 -243 134 -442 16 -373 -91 -862 -367 -1675 -138 -404
-361 -1003 -511 -1367 -380 -921 -955 -1920 -1640 -2845 -395 -533 -795 -981
-1079 -1210 -321 -258 -928 -632 -1287 -792 -279 -126 -779 -262 -1068 -291
-111 -11 -165 -7 -202 16 -50 32 -19 63 186 184 258 153 483 333 775 620 323
317 649 688 899 1023 431 575 1130 1644 1369 2092 526 986 1150 2369 1356
3005 71 220 85 290 80 409 -4 126 -9 133 -116 143 -164 14 -1024 1 -1115 -18
-36 -7 -22 21 -361 -746 -478 -1084 -529 -1184 -694 -1389 -102 -126 -284
-286 -462 -406 -220 -148 -460 -221 -692 -210 -86 4 -117 9 -155 28 -81 40
-78 61 62 426 52 136 153 403 225 593 253 665 422 1104 835 2175 422 1093 485
1264 531 1435 27 102 33 113 73 134 33 18 90 15 205 -13z"/>
        <path d="M21535 17445 c-22 -8 -40 -15 -41 -15 -1 0 -15 -23 -33 -51 -17 -28
-43 -92 -57 -142 -41 -149 -61 -209 -161 -467 -53 -135 -110 -288 -128 -340
-18 -52 -97 -259 -175 -460 -78 -201 -196 -504 -262 -675 -66 -170 -153 -395
-194 -498 -41 -103 -94 -245 -120 -315 -25 -70 -78 -212 -119 -317 -40 -104
-139 -363 -220 -575 -80 -212 -179 -470 -220 -575 -132 -343 -145 -407 -97
-488 59 -102 294 -152 523 -112 268 46 478 150 754 371 264 213 382 367 570
749 109 221 427 924 545 1205 31 74 85 199 120 276 l64 142 46 6 c25 3 263 9
529 13 l484 6 -6 -89 c-8 -104 -11 -115 -84 -339 -128 -395 -505 -1273 -861
-2010 -159 -329 -492 -981 -567 -1110 -151 -261 -716 -1135 -945 -1460 -176
-251 -464 -638 -559 -750 -243 -290 -653 -724 -831 -880 -212 -185 -458 -367
-615 -455 -164 -91 -218 -150 -218 -235 0 -127 119 -196 312 -181 276 22 821
168 1131 303 167 73 562 289 805 442 271 170 598 420 765 583 279 271 764 865
1081 1323 691 996 1177 1888 1551 2845 83 211 135 350 188 500 32 91 82 233
113 315 312 855 487 1555 487 1949 0 297 -115 577 -275 670 -108 64 -329 101
-695 117 -242 11 -901 2 -1357 -18 l-141 -6 -42 84 c-151 300 -386 530 -628
614 -43 15 -90 34 -107 43 -42 24 -254 28 -310 7z m183 -114 c9 -5 58 -19 107
-30 269 -62 504 -284 667 -628 l50 -106 181 7 c1274 45 1804 27 2005 -66 81
-38 160 -157 196 -293 73 -281 23 -703 -159 -1340 -126 -440 -464 -1379 -708
-1970 -504 -1218 -1407 -2643 -2298 -3625 -210 -232 -383 -383 -669 -584 -332
-234 -880 -545 -1129 -641 -337 -130 -810 -244 -1033 -248 -100 -2 -109 0
-130 21 -21 21 -22 24 -8 48 9 16 81 66 183 128 186 112 353 233 527 382 233
199 679 667 943 989 307 374 827 1127 1274 1845 229 367 237 382 443 780 570
1101 1129 2380 1272 2910 25 91 31 136 32 215 1 116 -6 150 -36 166 -33 18
-479 23 -844 10 -177 -6 -335 -14 -352 -17 -29 -6 -36 -18 -111 -183 -43 -97
-126 -284 -184 -416 -537 -1229 -640 -1426 -856 -1643 -56 -55 -155 -142 -221
-193 -291 -226 -511 -314 -790 -314 -145 0 -207 12 -242 47 -37 37 -34 46 185
623 156 413 597 1562 903 2355 158 410 336 873 397 1030 96 249 157 425 224
645 14 46 26 65 52 82 35 24 97 30 129 14z"/>
        <path d="M28235 16741 c-784 -6 -855 -7 -916 -24 -113 -32 -172 -97 -209 -229
-27 -96 -25 -179 5 -297 31 -124 66 -201 145 -321 124 -187 306 -339 555 -460
150 -72 236 -103 394 -141 317 -75 497 -84 1361 -64 1042 25 1574 32 2575 33
1257 3 1830 -17 2010 -67 177 -50 287 -101 393 -181 95 -71 161 -150 212 -255
51 -102 74 -193 94 -375 30 -270 36 -404 46 -960 12 -727 1 -1187 -40 -1631
-8 -86 -7 -115 5 -157 19 -62 54 -105 109 -135 65 -35 193 -31 315 11 253 87
545 284 724 489 88 101 207 278 251 375 46 99 101 324 121 494 44 381 36 1041
-21 1719 -8 99 -21 223 -29 275 -50 328 -201 662 -433 955 -86 109 -307 324
-412 401 -228 169 -521 328 -731 398 -248 83 -449 112 -874 126 -507 16 -4291
31 -5650 21z m4495 -135 c1336 -9 1565 -20 1835 -85 162 -40 261 -77 418 -159
255 -132 438 -259 611 -423 310 -293 522 -656 600 -1026 47 -225 89 -883 90
-1418 0 -595 -40 -909 -144 -1116 -42 -83 -140 -224 -217 -312 -188 -214 -484
-407 -719 -467 -121 -31 -177 -25 -210 24 -15 24 -15 39 0 208 31 350 39 671
33 1378 -3 377 -10 757 -16 845 -17 237 -48 478 -77 579 -78 279 -269 480
-569 599 -228 90 -387 109 -1070 127 -712 18 -2217 9 -3420 -22 -728 -19
-1227 -17 -1385 5 -425 60 -803 231 -1020 463 -121 130 -213 298 -240 441 -17
88 -9 207 18 260 43 83 63 91 247 102 145 8 3965 6 5235 -3z"/>
        <path d="M5795 16580 c-83 -15 -223 -59 -278 -86 -253 -127 -431 -349 -503
-629 -28 -110 -28 -197 2 -325 48 -207 201 -371 383 -409 71 -15 1039 -33
1886 -35 l660 -1 68 32 c249 118 412 487 338 768 -89 341 -314 599 -575 659
-76 18 -228 22 -1271 30 -386 3 -681 1 -710 -4z m1878 -140 c117 -10 191 -41
283 -117 82 -68 147 -157 205 -278 60 -125 81 -207 80 -310 -2 -203 -134 -429
-294 -500 l-61 -28 -1051 16 c-1358 22 -1398 23 -1459 45 -56 19 -136 87 -172
144 -38 60 -73 178 -80 269 -18 266 186 578 461 705 165 76 141 75 1120 68
479 -3 914 -9 968 -14z"/>
        <path d="M17097 16575 c-241 -46 -455 -175 -591 -355 -102 -137 -186 -364
-186 -506 0 -95 39 -247 87 -335 68 -126 172 -210 300 -243 77 -20 914 -37
1908 -40 l660 -1 70 34 c253 124 382 481 292 806 -92 329 -297 551 -560 606
-121 25 -479 37 -1287 44 -520 4 -627 3 -693 -10z m1688 -135 c233 -12 305
-23 385 -62 77 -37 197 -154 249 -242 44 -74 97 -231 110 -326 35 -258 -81
-510 -267 -580 l-57 -22 -720 11 c-396 7 -951 16 -1233 21 l-514 8 -63 31
c-104 52 -176 154 -209 298 -30 135 -18 248 43 393 39 94 94 173 181 261 80
81 153 129 265 174 138 55 147 55 930 50 396 -3 801 -10 900 -15z"/>
        <path d="M28570 15140 c-158 -20 -284 -86 -329 -173 -28 -55 -32 -111 -51
-737 -12 -391 -24 -646 -40 -830 -47 -540 -87 -2456 -61 -2903 23 -391 81
-675 206 -1012 46 -125 167 -377 236 -493 170 -284 430 -579 676 -764 395
-297 839 -460 1403 -514 157 -15 307 -16 1465 -11 1524 7 1999 19 2455 63 390
37 680 117 1065 296 432 201 848 526 1085 848 155 211 197 281 339 563 248
490 318 697 289 843 -24 122 -146 177 -261 118 -16 -9 -58 -45 -95 -82 -152
-151 -554 -440 -810 -581 -528 -291 -1153 -434 -2102 -481 -912 -44 -2917 -76
-3210 -51 -530 46 -797 205 -994 590 -107 209 -149 346 -181 585 -18 141 -21
955 -5 1506 15 505 51 1333 75 1740 24 404 38 827 32 965 -13 286 -78 445
-194 473 -180 44 -210 47 -573 48 -195 1 -384 -2 -420 -6z m802 -131 c11 -6
54 -16 95 -22 62 -10 79 -17 95 -37 74 -100 81 -431 28 -1370 -21 -381 -44
-887 -60 -1330 -17 -457 -24 -1626 -11 -1770 15 -158 51 -341 92 -456 63 -183
201 -429 303 -541 112 -124 330 -253 521 -308 220 -64 262 -67 845 -72 880 -8
2073 17 2720 57 477 30 703 54 1025 110 545 95 963 250 1386 515 199 125 490
347 625 477 45 43 90 78 100 78 87 -2 70 -159 -48 -440 -45 -107 -206 -432
-293 -590 -54 -100 -136 -222 -251 -375 -127 -169 -446 -443 -702 -604 -249
-156 -652 -320 -942 -385 -378 -84 -1044 -108 -2985 -110 -1151 -1 -1261 0
-1395 17 -696 87 -1188 343 -1618 842 -292 339 -487 735 -601 1217 -77 326
-91 505 -91 1196 0 799 38 1933 80 2377 13 137 27 471 41 970 8 306 15 429 25
453 18 43 116 90 211 101 109 13 781 13 805 0z"/>
        <path d="M6690 15071 c-124 -38 -243 -204 -363 -506 -59 -149 -181 -433 -237
-552 l-53 -113 -106 -54 c-58 -29 -191 -93 -296 -142 -192 -89 -367 -180 -462
-240 -97 -62 -123 -162 -68 -262 22 -41 43 -62 99 -98 89 -58 303 -162 511
-249 224 -94 314 -142 327 -174 6 -14 61 -172 123 -351 116 -333 129 -368 170
-455 13 -27 36 -84 51 -125 41 -113 120 -265 160 -310 64 -70 195 -89 293 -42
46 21 114 89 139 139 29 57 193 586 282 908 71 259 60 237 153 298 45 30 177
106 292 169 384 209 450 264 450 376 0 42 -6 67 -23 94 -34 56 -222 171 -528
327 -190 95 -303 170 -320 209 -24 58 -82 236 -189 577 -59 187 -118 364 -132
393 -34 73 -125 169 -171 182 -42 11 -66 12 -102 1z m113 -171 c51 -56 64 -94
227 -624 104 -337 142 -439 177 -477 28 -31 190 -128 323 -194 155 -77 329
-174 418 -232 71 -47 82 -58 82 -83 0 -30 -29 -58 -106 -105 -144 -87 -259
-154 -377 -219 -167 -92 -301 -179 -322 -209 -18 -25 -19 -29 -145 -467 -135
-469 -196 -667 -220 -706 -30 -47 -78 -82 -126 -89 -81 -13 -139 66 -238 322
-19 48 -50 123 -70 165 -20 43 -50 117 -66 165 -35 107 -158 462 -193 556 -14
38 -32 76 -41 86 -24 27 -173 101 -361 181 -93 40 -227 100 -296 135 -279 139
-322 192 -212 265 66 43 279 150 518 260 235 107 310 148 347 187 34 35 105
185 248 522 153 361 219 490 284 557 68 70 89 71 149 4z"/>
        <path d="M17970 15067 c-100 -24 -143 -98 -370 -632 -73 -170 -156 -360 -185
-421 -52 -111 -53 -112 -116 -147 -35 -20 -167 -84 -294 -142 -514 -237 -597
-296 -599 -423 -2 -144 101 -218 589 -427 138 -59 274 -121 303 -137 63 -35
63 -36 147 -283 32 -93 94 -258 137 -365 44 -107 97 -238 118 -290 97 -240
193 -389 263 -408 18 -5 60 -8 95 -7 56 1 69 6 119 42 33 22 70 60 86 86 38
61 146 359 197 544 37 133 135 449 178 578 15 44 26 56 92 101 41 28 171 104
287 168 268 147 407 236 433 278 54 88 46 167 -24 233 -51 49 -240 162 -481
287 -207 108 -319 177 -335 208 -7 12 -72 200 -145 418 -150 449 -200 577
-253 647 -61 79 -152 114 -242 92z m130 -156 c49 -51 102 -186 260 -660 66
-200 130 -381 140 -401 35 -68 112 -119 445 -292 298 -156 415 -231 415 -268
0 -23 -36 -60 -85 -89 -22 -13 -64 -40 -94 -59 -29 -19 -134 -79 -233 -134
-199 -109 -352 -204 -387 -242 -22 -24 -87 -221 -207 -631 -68 -229 -157 -485
-190 -542 -27 -47 -79 -83 -119 -83 -65 0 -126 88 -217 309 -130 316 -193 479
-258 666 -40 116 -82 230 -94 255 -29 61 -93 103 -296 191 -401 174 -567 258
-622 312 -34 35 -37 76 -5 104 38 36 214 128 447 236 281 130 386 182 428 214
47 35 104 153 307 633 136 323 209 474 241 499 42 33 81 27 124 -18z"/>
        <path d="M32226 14805 c-97 -35 -146 -122 -301 -540 -49 -130 -184 -433 -273
-612 l-71 -141 -153 -7 c-84 -3 -349 -10 -588 -14 l-435 -8 -105 -38 c-144
-51 -144 -51 -245 -157 -130 -134 -211 -288 -269 -508 -29 -110 -46 -255 -33
-296 4 -16 10 -48 12 -71 10 -109 82 -230 176 -294 73 -49 147 -83 214 -97 32
-7 327 -11 805 -13 415 -2 799 -5 853 -7 l98 -5 47 -65 c173 -238 214 -281
293 -302 51 -14 99 -4 151 31 41 27 72 64 209 247 34 46 73 88 88 94 17 7 297
12 801 15 712 4 781 6 852 23 301 73 508 350 483 645 -14 165 -75 341 -170
490 -51 80 -165 192 -243 239 -121 73 -150 79 -417 87 -132 4 -384 8 -560 8
-176 1 -370 4 -432 8 l-112 6 -44 96 c-68 147 -150 360 -207 536 -89 278 -131
398 -167 474 -70 147 -162 211 -257 176z m88 -142 c44 -43 83 -140 191 -467
108 -327 173 -499 261 -683 l53 -111 51 -7 c27 -4 342 -10 698 -14 615 -7 650
-9 698 -28 280 -110 491 -507 434 -814 -26 -139 -137 -273 -287 -346 l-78 -38
-730 -7 c-401 -3 -776 -8 -832 -11 -150 -7 -176 -25 -312 -217 -73 -103 -140
-170 -168 -170 -33 0 -93 64 -193 204 -47 65 -100 130 -119 145 l-34 26 -881
5 c-966 6 -904 2 -1012 65 -87 51 -102 70 -133 172 -17 52 -33 120 -37 151 -9
81 11 199 52 322 44 126 71 182 136 276 57 84 169 170 276 214 l67 27 405 7
c223 4 500 11 615 16 l210 9 22 28 c50 62 269 530 368 789 140 365 199 484
240 484 7 0 24 -12 39 -27z"/>
        <path d="M12680 12043 c-43 -8 -132 -75 -190 -144 -30 -37 -77 -111 -104 -165
-27 -55 -61 -117 -76 -139 -29 -43 -260 -466 -331 -605 l-43 -85 -4 -143 c-4
-133 -2 -150 23 -229 79 -254 240 -555 478 -898 357 -514 847 -988 1409 -1363
401 -267 745 -458 1044 -576 121 -48 306 -96 369 -96 108 0 182 46 204 127 22
82 -12 150 -130 255 -134 118 -371 400 -571 678 -222 309 -605 935 -936 1530
-158 284 -441 859 -562 1140 -115 267 -219 472 -285 566 -81 113 -186 165
-295 147z m107 -140 c79 -37 179 -211 348 -603 216 -500 482 -1014 882 -1698
476 -815 807 -1284 1166 -1649 111 -114 166 -177 161 -185 -37 -66 -78 -65
-309 9 -454 146 -1137 560 -1666 1010 -246 209 -558 542 -756 808 -236 317
-436 673 -523 934 -27 79 -30 102 -30 210 l0 121 85 168 c183 362 389 707 502
840 50 58 77 65 140 35z"/>
        <path d="M24015 12026 c-87 -22 -155 -71 -155 -112 0 -8 -17 -36 -38 -64 -21
-28 -58 -85 -81 -128 -24 -42 -81 -133 -126 -202 -46 -70 -100 -157 -121 -195
-33 -62 -61 -103 -134 -198 -12 -15 -30 -49 -40 -75 -9 -26 -31 -77 -48 -113
-54 -118 -55 -149 -16 -309 111 -448 476 -1041 959 -1554 299 -319 615 -581
1020 -849 449 -295 840 -496 1160 -593 123 -38 261 -40 318 -5 61 38 92 113
74 182 -9 36 -38 71 -178 216 -305 315 -509 583 -832 1098 -350 557 -601 998
-882 1548 -154 303 -192 382 -351 750 -224 517 -341 651 -529 603z m93 -120
c90 -47 172 -190 367 -641 297 -686 885 -1744 1388 -2500 231 -347 429 -594
661 -827 91 -91 146 -153 146 -166 0 -25 -41 -52 -80 -52 -39 0 -198 42 -298
79 -448 166 -1072 548 -1552 950 -156 130 -450 420 -574 565 -197 230 -396
503 -486 666 -20 36 -60 107 -88 158 -108 192 -205 443 -232 598 l-13 72 70
133 c76 144 195 343 303 504 37 55 99 156 139 225 74 128 119 184 181 225 43
29 36 28 68 11z"/>
        <path d="M19290 11691 c-80 -22 -285 -92 -525 -178 -99 -36 -229 -82 -290
-103 -199 -69 -647 -227 -790 -278 -173 -63 -651 -232 -800 -282 -266 -91
-487 -189 -554 -246 -85 -73 -207 -292 -255 -458 -55 -192 -61 -449 -12 -591
60 -175 182 -343 300 -414 120 -72 268 -91 409 -52 170 46 427 201 897 539
656 472 1278 982 1667 1367 189 187 205 205 238 278 52 114 62 168 42 238 -23
78 -63 129 -128 161 -72 36 -120 41 -199 19z m134 -126 c37 -18 76 -79 76
-119 0 -14 -12 -56 -27 -93 -24 -60 -43 -85 -163 -207 -458 -468 -1516 -1312
-2156 -1719 -196 -124 -282 -170 -379 -202 -154 -52 -304 -23 -414 80 -96 90
-181 255 -200 389 -11 80 2 296 24 378 37 143 104 281 190 390 67 86 155 126
755 340 387 138 1152 407 1615 568 176 61 381 133 455 160 147 54 175 58 224
35z"/>
        <path d="M7695 11602 c-159 -55 -355 -123 -435 -152 -80 -28 -309 -110 -510
-180 -201 -71 -531 -188 -735 -260 -203 -72 -410 -145 -460 -162 -132 -44
-360 -135 -439 -175 -74 -37 -152 -104 -196 -168 -96 -140 -176 -331 -200
-476 -5 -35 -10 -139 -10 -231 0 -186 8 -223 78 -363 75 -152 160 -246 280
-307 70 -37 92 -44 180 -58 62 -11 189 8 275 40 214 80 901 553 1507 1035 617
492 1103 933 1193 1082 78 130 91 230 42 327 -36 71 -71 101 -138 120 -122 35
-117 36 -432 -72z m408 -54 c40 -16 71 -80 63 -131 -15 -89 -53 -144 -215
-306 -577 -578 -1965 -1643 -2411 -1849 -110 -51 -174 -65 -268 -60 -86 5
-155 33 -229 94 -56 46 -134 165 -174 266 -28 72 -33 98 -37 196 -7 184 26
355 97 508 79 169 156 255 275 309 96 43 364 144 751 280 176 63 361 128 410
146 50 18 434 153 855 300 818 287 796 281 883 247z"/>
    </g>
</svg>
